<svg xmlns="http://www.w3.org/2000/svg" height="40" viewBox="0 -960 960 960" width="40"><path d="M176.463-173.078v-50.255H303.13l-28.668-26.77q-55-48.18-79.73-105.09-24.731-56.91-24.731-121.627 0-101.128 58.704-182.448 58.705-81.321 154.935-113.91v52.408q-73.872 30.052-118.628 96.783T220.256-476.82q0 55.846 20.948 101.974 20.949 46.129 60.385 82.59l35.13 30.924v-122.257h50.255v210.511H176.463Zm400.307-13.333v-52.819q74.538-30.052 118.756-96.783t44.218-147.167q0-48.41-20.948-96.154-20.949-47.743-59.308-86.103l-34.719-33.231v122.257h-50.255v-210.511h210.511v50.255H657.947l28.411 27.847q52.744 50.846 78.193 109.602 25.448 58.757 25.448 116.038 0 101.128-58.499 182.653-58.5 81.526-154.73 114.116Z"/></svg>